<svg id="Layer_1" data-name="Layer 1" xmlns="http://www.w3.org/2000/svg" viewBox="0 0 50 50">
  <title>2Artboard 1</title>
  <rect width="50" height="50" fill="#fff"/>
  <g id="Page-1">
    <g id="Atoms">
      <g id="Group-6-Copy">
        <g id="Group-5">
          <path id="Combined-Shape" d="M36.93,31.7h3.25v.68h0a2.37,2.37,0,0,1-2.31,2.42H12.13a2.37,2.37,0,0,1-2.31-2.42V31.7H13V16.17h0a1,1,0,0,1,.92-1H36a1,1,0,0,1,.93,1ZM14.19,17.37V31.7H35.85V17.37Z" fill="#052951"/>
        </g>
        <path id="Rectangle-6" d="M20.29,19.38h0a.51.51,0,0,1,0,.69l-3.93,4.11a.47.47,0,0,1-.66,0h0a.51.51,0,0,1,0-.69l3.93-4.11A.45.45,0,0,1,20.29,19.38Z" fill="#052951"/>
        <path id="Rectangle-6-Copy" d="M17.75,18.89h0a.5.5,0,0,1,0,.68l-1.64,1.71a.44.44,0,0,1-.65,0h0a.5.5,0,0,1,0-.68l1.63-1.71A.45.45,0,0,1,17.75,18.89Z" fill="#052951"/>
      </g>
    </g>
  </g>
</svg>
