<svg id="Layer_1" data-name="Layer 1" xmlns="http://www.w3.org/2000/svg" viewBox="0 0 50 50">
  <title>2Artboard 2</title>
  <rect width="50" height="50" fill="#fff"/>
  <g id="Mobile">
    <g id="iPhone-8-Copy-4">
      <g id="bike_icon" data-name="bike icon">
        <path id="Shape" d="M25.86,30.07h-1.8a.57.57,0,0,0-.57.58.53.53,0,0,0,.57.58h1.8a.58.58,0,0,0,0-1.16Z" fill="#052951"/>
        <path id="Shape-2" data-name="Shape" d="M33.65,23.08a5.13,5.13,0,0,0-2.31.51A19.05,19.05,0,0,1,31,21.64,1.55,1.55,0,0,0,32,22c.79,0,.79-2.88,0-2.88a1.61,1.61,0,0,0-1.23.65v-.29l-.07-.36c-.21-1.73-1.22-3.82-5-3.39a.55.55,0,0,0-.5.58.54.54,0,0,0,.57.5c3.1-.28,3.61,1.23,3.75,2.45l.07.36a.65.65,0,0,0,.07.36H21l-.36-.72H21a.79.79,0,0,0,0-1.58H18.73a.79.79,0,0,0,0,1.58h.72v.08L20,20.56l-1.51,3a5.54,5.54,0,0,0-2.17-.44,5.62,5.62,0,1,0,0,11.24A5.72,5.72,0,0,0,22,29.71h2.17a.74.74,0,0,0,.57.15,1.11,1.11,0,0,0,1.08-1.08,1,1,0,0,0-.07-.44L29.9,22c.22.72.29,1.44.5,2.16A5.61,5.61,0,0,0,28,28.7a5.7,5.7,0,1,0,5.7-5.62Zm-12.9-1.22,3.17,6.41a1.08,1.08,0,0,0-.14.43H22.19a5.43,5.43,0,0,0-2.59-4.61Zm-.43,6.77h-3.1l1.51-2.95A3.82,3.82,0,0,1,20.32,28.63Zm-3.89,3.89a3.82,3.82,0,1,1,0-7.64,4.26,4.26,0,0,1,1.36.22l-1.94,3.75a.62.62,0,0,0,0,.5.58.58,0,0,0,.43.29h3.89A3.78,3.78,0,0,1,16.43,32.52Zm8.5-4.75h0l-3.39-6.63h7.78Zm8.72,4.75a3.85,3.85,0,0,1-3.89-3.82A3.79,3.79,0,0,1,30.91,26a8.49,8.49,0,0,0,2.38,3.6.54.54,0,0,0,.36.14.59.59,0,0,0,.36-.14.57.57,0,0,0,0-.79,8.31,8.31,0,0,1-2.16-3.46,3.84,3.84,0,1,1,1.8,7.2Z" fill="#052951"/>
      </g>
    </g>
  </g>
</svg>
