<svg width="45" height="45" viewBox="0 0 45 45" xmlns="http://www.w3.org/2000/svg"><title>Combined Shape</title><path d="M32.581 0H12.418C5.571 0 0 5.571 0 12.418v20.164C0 39.429 5.57 45 12.418 45h20.163C39.43 45 45 39.429 45 32.582V12.418C45 5.571 39.43 0 32.581 0zm8.427 32.582c0 4.646-3.78 8.425-8.426 8.425H12.418c-4.646 0-8.425-3.78-8.425-8.425V12.418c0-4.645 3.78-8.425 8.425-8.425h20.163c4.646 0 8.426 3.78 8.426 8.425v20.164zM22.5 10.905c-6.394 0-11.595 5.202-11.595 11.596 0 6.393 5.201 11.594 11.595 11.594 6.394 0 11.595-5.201 11.595-11.594 0-6.394-5.201-11.596-11.595-11.596zm0 19.197c-4.192 0-7.603-3.41-7.603-7.602s3.41-7.602 7.603-7.602c4.192 0 7.603 3.41 7.603 7.602s-3.411 7.602-7.603 7.602zM34.582 7.52a2.94 2.94 0 0 0-2.069.857 2.942 2.942 0 0 0-.86 2.07c0 .77.315 1.526.86 2.071a2.95 2.95 0 0 0 2.069.858c.772 0 1.525-.315 2.07-.858a2.95 2.95 0 0 0 .858-2.07 2.94 2.94 0 0 0-.857-2.071 2.94 2.94 0 0 0-2.071-.857z" fill="#FFF"/></svg>
