<?xml version="1.0" encoding="UTF-8"?>
<svg width="16px" height="30px" viewBox="0 0 16 30" version="1.1" xmlns="http://www.w3.org/2000/svg" xmlns:xlink="http://www.w3.org/1999/xlink">
    <!-- Generator: Sketch 47.1 (45422) - http://www.bohemiancoding.com/sketch -->
    <title>Combined Shape</title>
    <desc>Created with Sketch.</desc>
    <defs></defs>
    <g id="Mobile" stroke="none" stroke-width="1" fill="none" fill-rule="evenodd">
        <g id="iPhone-8-Copy-4" transform="translate(-51.000000, -289.000000)" fill="#052951">
            <g id="Group-4" transform="translate(18.000000, 266.000000)">
                <g id="Group">
                    <path d="M35,23 L47,23 C48.1045695,23 49,23.8954305 49,25 L49,50.3500004 C49,51.4545699 48.1045695,52.3500004 47,52.3500004 L35,52.3500004 L35,52.3500004 C33.8954305,52.3500004 33,51.4545699 33,50.3500004 L33,25 L33,25 C33,23.8954305 33.8954305,23 35,23 L35,23 Z M34.5,27 L34.5,46.5 L47.5,46.5 L47.5,27 L34.5,27 Z M41.0999985,25.7894737 C41.514212,25.7894737 41.8499985,25.4536872 41.8499985,25.0394737 C41.8499985,24.6252601 41.514212,24.2894737 41.0999985,24.2894737 C40.6857849,24.2894737 40.3499985,24.6252601 40.3499985,25.0394737 C40.3499985,25.4536872 40.6857849,25.7894737 41.0999985,25.7894737 Z M39.5,49 C39.2238576,49 39,49.2238576 39,49.5 C39,49.7761424 39.2238576,50 39.5,50 L42.5,50 C42.7761424,50 43,49.7761424 43,49.5 C43,49.2238576 42.7761424,49 42.5,49 L39.5,49 Z" id="Combined-Shape"></path>
                </g>
            </g>
        </g>
    </g>
</svg>
