<svg id="money" xmlns="http://www.w3.org/2000/svg" viewBox="0 0 201 202">
  <title>emojisyndlings</title>
  <ellipse cx="100.5" cy="101" rx="100.5" ry="101" fill="#fcd900"/>
  <path d="M639,557H749s-11.93,40-55.66,42.87S639,557,639,557Z" transform="translate(-593 -425)" fill="#211c02"/>
  <path d="M639.23,490.6s16.82-13.6,34.85-3.21l-.81,2.08s-19.47-4.23-31.87,2.94Z" transform="translate(-593 -425)" fill="#211c02"/>
  <path d="M709,490.2s17.86-12.2,35-.4l-1,2S724,486,711,492.17Z" transform="translate(-593 -425)" fill="#211c02"/>
  <path d="M658.16,533.93v-4.24a12.22,12.22,0,0,1-6.43-1.85l1-2.81a11.27,11.27,0,0,0,6,1.8c3,0,5-1.72,5-4.11s-1.64-3.74-4.75-5c-4.29-1.68-6.93-3.62-6.93-7.27,0-3.49,2.48-6.13,6.34-6.76v-4.25h2.61v4.08a11.1,11.1,0,0,1,5.46,1.47l-1,2.77a10.24,10.24,0,0,0-5.3-1.43c-3.23,0-4.45,1.94-4.45,3.62,0,2.18,1.56,3.27,5.21,4.78,4.33,1.77,6.51,3.95,6.51,7.69,0,3.32-2.31,6.43-6.64,7.14v4.37Z" transform="translate(-593 -425)"/>
  <path d="M728.16,533.93v-4.24a12.22,12.22,0,0,1-6.43-1.85l1-2.81a11.27,11.27,0,0,0,6,1.8c3,0,5-1.72,5-4.11s-1.64-3.74-4.75-5c-4.29-1.68-6.93-3.62-6.93-7.27,0-3.49,2.48-6.13,6.34-6.76v-4.25h2.61v4.08a11.1,11.1,0,0,1,5.46,1.47l-1,2.77a10.24,10.24,0,0,0-5.3-1.43c-3.23,0-4.45,1.94-4.45,3.62,0,2.18,1.56,3.27,5.21,4.78,4.33,1.77,6.51,3.95,6.51,7.69,0,3.32-2.31,6.43-6.64,7.14v4.37Z" transform="translate(-593 -425)"/>
  <g id="tunge">
    <path d="M677,570c1-3,13.32-1.63,15.5,0h.5c5.9-1.88,16-3,16,0v38c0,10.74-31,15.7-32,0s0-22.45,0-35.52" transform="translate(-593 -425)" fill="#27ad27"/>
    <path d="M691.85,609.16v-3.64a10.52,10.52,0,0,1-5.51-1.58l.86-2.42a9.57,9.57,0,0,0,5.19,1.55c2.55,0,4.28-1.47,4.28-3.53s-1.4-3.2-4.07-4.28c-3.67-1.44-5.94-3.09-5.94-6.23,0-3,2.13-5.25,5.44-5.79V579.6h2.23v3.49a9.7,9.7,0,0,1,4.68,1.26l-.9,2.38a8.74,8.74,0,0,0-4.54-1.22c-2.77,0-3.81,1.65-3.81,3.09,0,1.87,1.33,2.81,4.46,4.11,3.71,1.51,5.58,3.38,5.58,6.58,0,2.85-2,5.51-5.68,6.12v3.75Z" transform="translate(-593 -425)"/>
  </g>
</svg>
