<?xml version="1.0" standalone="no"?>
<!DOCTYPE svg PUBLIC "-//W3C//DTD SVG 20010904//EN"
 "http://www.w3.org/TR/2001/REC-SVG-20010904/DTD/svg10.dtd">
<svg version="1.0" xmlns="http://www.w3.org/2000/svg"
 width="700.000000pt" height="700.000000pt" viewBox="0 0 700.000000 700.000000"
 preserveAspectRatio="xMidYMid meet">
<metadata>
Created by potrace 1.11, written by Peter Selinger 2001-2013
</metadata>
<g transform="translate(0.000000,700.000000) scale(0.100000,-0.100000)"
fill="#000000" stroke="none">
<path d="M4104 5734 c-11 -26 -27 -144 -29 -214 0 -15 4 -16 410 -121 88 -23
166 -45 173 -48 9 -5 -22 -59 -100 -179 -129 -196 -281 -429 -422 -644 -53
-82 -139 -214 -193 -295 -53 -82 -121 -186 -151 -233 -31 -47 -111 -170 -180
-274 l-124 -189 -18 41 c-10 22 -25 55 -33 74 -8 18 -30 69 -50 113 -19 44
-151 343 -292 665 -322 734 -393 895 -415 945 -10 22 -17 41 -15 43 2 2 72 15
157 28 84 14 164 27 177 29 22 4 76 12 126 19 23 3 33 35 41 126 3 36 7 77 8
91 2 15 1 30 -3 35 -3 5 -408 9 -933 9 l-927 0 -11 -47 c-11 -55 -19 -106 -24
-165 -3 -45 -2 -46 54 -57 49 -10 225 -47 245 -51 11 -3 36 -8 55 -11 19 -3
40 -11 47 -17 10 -10 86 -179 183 -407 15 -36 155 -357 310 -715 155 -357 295
-679 310 -715 15 -36 66 -154 114 -263 85 -195 86 -199 80 -260 -3 -34 -7 -64
-9 -67 -2 -3 -6 -41 -10 -85 -3 -44 -8 -87 -10 -95 -3 -8 -7 -42 -10 -75 -3
-33 -8 -71 -10 -85 -3 -14 -7 -50 -11 -80 -3 -30 -8 -66 -9 -80 -2 -14 -6 -50
-9 -80 -4 -30 -8 -66 -11 -80 -3 -23 -8 -64 -20 -165 -10 -86 -15 -131 -20
-165 -6 -46 -12 -96 -25 -205 -16 -136 -21 -174 -30 -244 -5 -35 -8 -67 -8
-70 1 -3 -2 -34 -7 -67 l-7 -62 -72 -7 c-39 -4 -79 -9 -89 -10 -10 -2 -46 -6
-80 -9 -34 -4 -73 -8 -87 -10 -14 -3 -52 -7 -85 -11 -166 -17 -195 -21 -202
-29 -10 -10 -24 -92 -29 -173 l-5 -81 1085 0 c1062 0 1086 0 1087 19 1 10 2
22 3 27 3 10 15 107 20 160 3 42 -4 54 -34 58 -8 1 -58 8 -110 14 -52 6 -106
13 -120 15 -14 2 -50 7 -80 10 -30 3 -66 8 -80 10 -14 2 -52 7 -85 10 -33 3
-69 8 -80 10 -11 2 -28 4 -38 4 -13 1 -17 7 -13 19 3 9 8 44 11 77 4 33 8 71
10 85 1 14 6 50 9 80 12 102 15 125 20 165 6 42 13 98 21 175 3 25 8 59 10 75
5 31 6 40 25 210 6 55 13 112 16 126 2 14 6 52 9 85 3 32 8 70 10 84 9 61 15
109 20 160 3 30 8 66 10 80 2 14 7 52 10 85 3 33 7 71 10 85 2 14 6 45 9 70
20 180 -20 107 398 733 209 313 534 798 722 1079 l342 511 149 52 c83 29 198
70 257 90 63 22 109 44 113 54 3 8 9 63 12 121 l5 105 -623 0 c-343 -1 -671 2
-728 5 l-104 5 -13 -31z"/>
<path d="M4698 3055 c-2 -2 -23 -5 -48 -7 -199 -20 -296 -220 -294 -613 1
-118 13 -355 19 -365 2 -3 6 -43 10 -89 4 -47 9 -94 11 -105 2 -12 6 -45 10
-74 3 -29 7 -62 9 -74 3 -11 7 -46 10 -77 4 -31 8 -63 10 -71 2 -8 9 -55 16
-105 15 -119 18 -141 23 -168 2 -12 12 -83 21 -157 10 -74 19 -137 21 -138 4
-5 192 92 349 181 704 398 1132 794 1220 1132 78 297 -137 529 -428 461 -146
-34 -299 -144 -409 -293 -17 -24 -33 -42 -35 -40 -1 2 3 35 10 73 49 263 -83
436 -393 513 -43 10 -127 20 -132 16z"/>
</g>
</svg>
