<svg id="Layer_1" data-name="Layer 1" xmlns="http://www.w3.org/2000/svg" viewBox="0 0 50 50">
  <title>2Artboard 4</title>
  <rect width="50" height="50" fill="#fff"/>
  <g id="Mobile">
    <g id="iPhone-8-Copy-4">
      <g id="Group-4">
        <g id="Group">
          <path id="Combined-Shape" d="M19,10.32H31a2,2,0,0,1,2,2V37.68a2,2,0,0,1-2,2H19a2,2,0,0,1-2-2V12.32h0a2,2,0,0,1,2-2Zm-.5,4v19.5h13V14.32Zm6.6-1.21a.75.75,0,1,0-.75-.75A.75.75,0,0,0,25.1,13.11ZM23.5,36.32a.5.5,0,0,0-.5.5.5.5,0,0,0,.5.5h3a.5.5,0,0,0,.5-.5.5.5,0,0,0-.5-.5Z" fill="#052951"/>
        </g>
      </g>
    </g>
  </g>
</svg>
