<svg id="Layer_1" data-name="Layer 1" xmlns="http://www.w3.org/2000/svg" viewBox="0 0 50 50">
  <title>2Artboard 3</title>
  <rect width="50" height="50" fill="#fff"/>
  <g id="Mobile">
    <g id="iPhone-8-Copy-4">
      <g id="Group">
        <path id="Combined-Shape" d="M16.09,12.34H33.91a1.73,1.73,0,0,1,1.73,1.72V35.94a1.73,1.73,0,0,1-1.73,1.72H16.09a1.73,1.73,0,0,1-1.73-1.72V14.06h0a1.73,1.73,0,0,1,1.73-1.72Zm-.43,2.59V33.78H34.34V14.93Zm8.2,20.27a.44.44,0,0,0,0,.87h3.06a.44.44,0,0,0,0-.87Zm1.4-21a.54.54,0,1,0-.54-.54A.54.54,0,0,0,25.26,14.19Z" fill="#052951"/>
      </g>
    </g>
  </g>
</svg>
