<?xml version="1.0" encoding="utf-8"?>
<!-- Generator: Adobe Illustrator 21.0.2, SVG Export Plug-In . SVG Version: 6.00 Build 0)  -->
<svg version="1.1" id="Layer_1" xmlns="http://www.w3.org/2000/svg" xmlns:xlink="http://www.w3.org/1999/xlink" x="0px" y="0px"
	 viewBox="0 0 1000 1000" style="enable-background:new 0 0 1000 1000;" xml:space="preserve">
<style type="text/css">
	.st0{fill:#E72150;}
	.st1{fill:#082846;}
</style>
<g>
	<path class="st0" d="M871.9,649.1c-0.9-53.3-72.5-78-128.7,3c0,0,27.8-68.8-53-86.3c-98.7-21.4-68,122.3-45.1,290.2
		C645,856,873.5,748.8,871.9,649.1z"/>
	<g>
		<path class="st1" d="M513.4,545.9L481.9,807l91.8,11.3c0,0,0,9.1-1,19.3c-1.1,7.1-3.1,18.4-3.1,18.4s-120.3-1-158.1-1
			c-38.7,0-150.9,1-150.9,1s-1.1-11.2,0-18.4c1-10.2,4.1-19.3,4.1-19.3l87.7-10.2l30.6-251.9L240.1,226.7L182,214.5
			c0,0,0-6.1,1-15.3c1.1-8.1,4.1-21.4,4.1-21.4s89.8,1,127.6,1c37.7,0,138.7-1,138.7-1s0,12.2-1,21.4c-1.1,9.1-3.1,15.3-3.1,15.3
			l-69.3,11.2l118.3,269.2l169.3-259l-85.7-22.4c0,0,0-6.1,1.1-14.3c1-13.3,4.1-22.4,4.1-22.4s70.3,2,109.1,2c36.7,0,99.9-1,99.9-1
			s0,11.2-1,21.4c-1,8.1-2.1,13.3-2.1,13.3L719.4,238L513.4,545.9z"/>
	</g>
</g>
</svg>
