<svg width="38" height="45" viewBox="0 0 38 45" xmlns="http://www.w3.org/2000/svg"><title>Combined Shape</title><path d="M37.343 22.782c-.465-2.02-2.119-3.51-4.108-3.732-4.711-.526-9.482-.529-14.229-.526-4.749-.003-9.518 0-14.23.526-1.989.222-3.641 1.712-4.106 3.732C.008 25.66 0 28.8 0 31.762c0 2.962 0 6.102.662 8.979.465 2.02 2.117 3.51 4.107 3.732 4.711.527 9.48.529 14.229.527 4.749.002 9.517 0 14.23-.527 1.989-.222 3.642-1.712 4.107-3.732.662-2.877.665-6.017.665-8.98 0-2.962.004-6.102-.657-8.979zm-26.504 2.23h-2.75v14.61H5.534v-14.61h-2.7v-2.393h8.005v2.393zm6.939 14.61H15.48V38.24c-.913 1.046-1.78 1.556-2.625 1.556-.74 0-1.25-.3-1.479-.942-.125-.383-.202-.99-.202-1.883V26.953h2.296v9.327c0 .538 0 .818.02.893.056.356.23.537.538.537.46 0 .942-.355 1.451-1.075v-9.682h2.298v12.669zm8.724-3.803c0 1.172-.08 2.016-.233 2.553-.306.942-.92 1.424-1.834 1.424-.817 0-1.605-.454-2.373-1.402v1.228h-2.296V22.62h2.296v5.553c.741-.913 1.529-1.374 2.373-1.374.914 0 1.528.48 1.834 1.429.155.51.233 1.347.233 2.547v5.045zm8.666-2.113h-4.592v2.245c0 1.173.383 1.759 1.173 1.759.565 0 .894-.308 1.025-.921.022-.125.052-.635.052-1.555h2.343v.335c0 .74-.029 1.25-.05 1.478a3.27 3.27 0 0 1-.536 1.376c-.635.92-1.578 1.373-2.777 1.373-1.202 0-2.116-.432-2.78-1.297-.487-.634-.737-1.633-.737-2.979v-4.437c0-1.354.222-2.345.71-2.985.663-.867 1.577-1.299 2.75-1.299 1.152 0 2.066.432 2.71 1.299.48.64.71 1.63.71 2.985v2.623zm-3.44-4.841c-.767 0-1.152.586-1.152 1.757v1.172h2.296v-1.172c0-1.171-.384-1.757-1.144-1.757zm-8.522 0c.663 0 1 .586 1 1.728V36c0 1.144-.337 1.71-1 1.71-.378 0-.762-.182-1.145-.566v-7.721c.384-.38.767-.558 1.145-.558zm1.283-11.509c-.747 0-1.262-.303-1.495-.951-.128-.388-.206-1-.206-1.904V4.377h2.314v9.426c0 .544 0 .826.028.902.05.36.233.543.544.543.464 0 .952-.359 1.466-1.085V4.377h2.321V17.18h-2.32v-1.396c-.925 1.058-1.805 1.572-2.652 1.572zM8.332 10.222C8.1 8.99 7.584 7.183 6.758 4.787 6.216 3.193 5.651 1.593 5.108 0h2.709l1.826 6.747L11.4 0h2.603l-3.096 10.222v6.958H8.332v-6.958zm9.12 7.134c-1.158 0-2.061-.437-2.703-1.31-.493-.641-.726-1.65-.726-3.011V8.55c0-1.368.233-2.369.726-3.016.642-.876 1.545-1.313 2.702-1.313 1.163 0 2.066.437 2.707 1.313.488.647.72 1.648.72 3.016v4.484c0 1.36-.233 2.37-.72 3.01-.64.874-1.544 1.311-2.707 1.311zm-1.108-9.27v5.386c0 1.184.359 1.777 1.107 1.777s1.107-.593 1.107-1.777V8.086c0-1.185-.359-1.775-1.107-1.775s-1.107.59-1.107 1.775z" fill="#FFF"/></svg>
